<svg xmlns="http://www.w3.org/2000/svg" xmlns:xlink="http://www.w3.org/1999/xlink" width="25" height="25" viewBox="0 0 25 25">
  <defs>
    <clipPath id="clip-path">
      <rect id="長方形_1796" data-name="長方形 1796" width="25" height="25" fill="none"/>
    </clipPath>
  </defs>
  <g id="グループ_922" data-name="グループ 922" clip-path="url(#clip-path)">
    <path id="パス_197" data-name="パス 197" d="M22.4,22.771H2.6A1.7,1.7,0,0,1,1.13,20.224l9.9-17.146a1.7,1.7,0,0,1,2.939,0l9.9,17.146a1.7,1.7,0,0,1-1.47,2.547M12.5,3a.915.915,0,0,0-.8.463L1.8,20.61A.925.925,0,0,0,2.6,22H22.4a.925.925,0,0,0,.8-1.388L13.3,3.464A.914.914,0,0,0,12.5,3m-1.135.27h0Z" fill="red"/>
    <path id="パス_198" data-name="パス 198" d="M20.132,20.652H4.867a.887.887,0,0,1-.769-1.33h0L11.732,6.1a.916.916,0,0,1,1.535,0L20.9,19.321a.888.888,0,0,1-.769,1.331M4.767,19.706a.116.116,0,0,0,0,.117.112.112,0,0,0,.1.056H20.132a.112.112,0,0,0,.1-.056.116.116,0,0,0,0-.117L12.6,6.487c-.056-.1-.141-.1-.2,0Z" fill="red"/>
    <path id="パス_199" data-name="パス 199" d="M11.819,18.735a.92.92,0,0,1-.255-.672.857.857,0,0,1,.255-.633.921.921,0,0,1,.681-.253.931.931,0,0,1,.672.253.85.85,0,0,1,.264.633.918.918,0,0,1-.264.664.99.99,0,0,1-1.353.008m.025-5.917q-.2-1.888-.2-2.414a.968.968,0,0,1,.211-.713.891.891,0,0,1,.641-.2.844.844,0,0,1,.632.213,1,1,0,0,1,.2.7q0,.526-.2,2.414t-.478,3.937h-.345q-.276-2.05-.474-3.937" fill="red"/>
  </g>
</svg>
