<svg xmlns="http://www.w3.org/2000/svg" xmlns:xlink="http://www.w3.org/1999/xlink" width="30" height="30" viewBox="0 0 30 30">
  <defs>
    <clipPath id="clip-path">
      <rect id="長方形_2105" data-name="長方形 2105" width="30" height="30" transform="translate(50)" fill="none"/>
    </clipPath>
  </defs>
  <g id="グループ_1239" data-name="グループ 1239" transform="translate(-450 -295)">
    <path id="パス_320" data-name="パス 320" d="M67.091,26.028H61.81a.4.4,0,1,1,0-.8h5.281a.746.746,0,0,0,.746-.745V20.671a.4.4,0,1,1,.8,0v3.812a1.547,1.547,0,0,1-1.545,1.545" transform="translate(400 295)" fill="#7f552a"/>
    <path id="パス_321" data-name="パス 321" d="M51.243,24.883a.4.4,0,0,1-.4-.4V2.5A1.547,1.547,0,0,1,52.389.951h14.7A1.547,1.547,0,0,1,68.637,2.5V6.69a.4.4,0,0,1-.8,0V2.5a.746.746,0,0,0-.745-.745h-14.7a.746.746,0,0,0-.746.745V24.483a.4.4,0,0,1-.4.4" transform="translate(400 295)" fill="#7f552a"/>
    <path id="パス_322" data-name="パス 322" d="M60.972,29.049a1.544,1.544,0,0,1-.479-.079l-8.229-2.685a2.126,2.126,0,0,1-1.421-1.9V2.4a1.222,1.222,0,0,1,.481-1.011,1.315,1.315,0,0,1,1.188-.142l8.229,2.685a2.126,2.126,0,0,1,1.422,1.9V27.818a1.219,1.219,0,0,1-.48,1.01,1.2,1.2,0,0,1-.711.221M52.033,1.967a.4.4,0,0,0-.24.069.436.436,0,0,0-.15.363V24.385a1.321,1.321,0,0,0,.869,1.139l8.229,2.685a.529.529,0,0,0,.473-.029.433.433,0,0,0,.15-.362V5.831a1.342,1.342,0,0,0-.871-1.139L52.264,2.007a.734.734,0,0,0-.231-.04" transform="translate(400 295)" fill="#7f552a"/>
    <path id="パス_323" data-name="パス 323" d="M78.757,13.814H65.9a.4.4,0,1,1,0-.8H78.757a.4.4,0,1,1,0,.8" transform="translate(400 295)" fill="#7f552a"/>
    <path id="パス_324" data-name="パス 324" d="M70.559,18.056a.4.4,0,0,1-.261-.1L65.38,13.717a.4.4,0,0,1,0-.6l4.925-4.248a.4.4,0,1,1,.522.606l-4.574,3.944,4.567,3.939a.4.4,0,0,1-.261.7" transform="translate(400 295)" fill="#7f552a"/>
    <g id="グループ_1220" data-name="グループ 1220" transform="translate(400 295)" opacity="0">
      <g id="グループ_1219" data-name="グループ 1219">
        <g id="グループ_1218" data-name="グループ 1218" clip-path="url(#clip-path)">
          <rect id="長方形_2104" data-name="長方形 2104" width="30" height="30" transform="translate(50)" fill="#fff"/>
        </g>
      </g>
    </g>
  </g>
</svg>
