<svg xmlns="http://www.w3.org/2000/svg" xmlns:xlink="http://www.w3.org/1999/xlink" width="25" height="25" viewBox="0 0 25 25">
  <defs>
    <clipPath id="clip-path">
      <rect id="長方形_1239" data-name="長方形 1239" width="25" height="25" fill="none"/>
    </clipPath>
  </defs>
  <g id="グループ_518" data-name="グループ 518" transform="translate(-0.454 -0.454)">
    <g id="グループ_517" data-name="グループ 517" transform="translate(0.454 0.454)" clip-path="url(#clip-path)">
      <path id="パス_47" data-name="パス 47" d="M13.015,25.292a.345.345,0,0,1-.345-.345c0-1.68-1.908-3.112-4.116-4.768C5,17.51.571,14.191.571,7.746A6.942,6.942,0,0,1,13.015,3.511,6.942,6.942,0,0,1,25.459,7.746c0,6.444-4.426,9.764-7.983,12.432-2.209,1.657-4.116,3.088-4.116,4.768a.345.345,0,0,1-.345.345m-5.5-23.8A6.261,6.261,0,0,0,1.262,7.746c0,6.1,4.273,9.3,7.706,11.88,1.776,1.332,3.37,2.528,4.047,3.9.677-1.376,2.272-2.571,4.047-3.9,3.433-2.576,7.706-5.782,7.706-11.88A6.253,6.253,0,0,0,13.429,4.109a6.939,6.939,0,0,1-.127,7.478.359.359,0,0,1-.574,0A6.939,6.939,0,0,1,12.6,4.109,6.25,6.25,0,0,0,7.516,1.492m5.5,3.277a6.258,6.258,0,0,0,0,5.959,6.258,6.258,0,0,0,0-5.959" transform="translate(-0.515 -0.547)" fill="#FF0000"/>
    </g>
  </g>
</svg>
