<svg id="グループ_1586" data-name="グループ 1586" xmlns="http://www.w3.org/2000/svg" xmlns:xlink="http://www.w3.org/1999/xlink" width="30" height="30" viewBox="0 0 30 30">
  <defs>
    <clipPath id="clip-path">
      <rect id="長方形_1993" data-name="長方形 1993" width="30" height="30" fill="none"/>
    </clipPath>
  </defs>
  <g id="グループ_1073" data-name="グループ 1073" clip-path="url(#clip-path)">
    <path id="パス_276" data-name="パス 276" d="M17.858,27.484a.4.4,0,0,1-.256-.092L.452,13.193a.4.4,0,0,1,.11-.682l27.8-10.8a.4.4,0,0,1,.512.53l-10.654,25a.4.4,0,0,1-.272.232.436.436,0,0,1-.095.012M1.487,13.01,17.7,26.432,27.77,2.8Z" transform="translate(0.061 0.336)" fill="#fff"/>
    <path id="パス_277" data-name="パス 277" d="M7.552,20.084a.4.4,0,0,1-.268-.7l19.59-17.6a.4.4,0,1,1,.535.6l-19.59,17.6a.4.4,0,0,1-.268.1" transform="translate(1.43 0.336)" fill="#fff"/>
    <path id="パス_278" data-name="パス 278" d="M8.766,25.482a.373.373,0,0,1-.108-.016.4.4,0,0,1-.287-.326L7.156,16.808a.4.4,0,0,1,.65-.365l4.828,4a.4.4,0,0,1,.053.563L9.074,25.338a.4.4,0,0,1-.308.144M8.1,17.723l.936,6.415,2.78-3.338Z" transform="translate(1.43 3.27)" fill="#fff"/>
  </g>
</svg>
