<svg id="グループ_515" data-name="グループ 515" xmlns="http://www.w3.org/2000/svg" xmlns:xlink="http://www.w3.org/1999/xlink" width="32" height="32" viewBox="0 0 32 32">
  <defs>
    <clipPath id="clip-path">
      <rect id="長方形_1237" data-name="長方形 1237" width="32" height="32" fill="none"/>
    </clipPath>
  </defs>
  <g id="グループ_514" data-name="グループ 514" clip-path="url(#clip-path)">
    <path id="パス_32" data-name="パス 32" d="M9.851,21.1A4.751,4.751,0,1,1,14.6,16.35,4.756,4.756,0,0,1,9.851,21.1m0-8.655a3.9,3.9,0,1,0,3.9,3.9,3.909,3.909,0,0,0-3.9-3.9" transform="translate(0.301 0.685)" fill="#fff"/>
    <path id="パス_33" data-name="パス 33" d="M18.748,28.593a.424.424,0,0,1-.424-.424c0-3.951-3.191-6.539-5.079-6.772-.681,1.493-1.473,2.777-3.152,2.777S7.622,22.891,6.942,21.4c-1.889.233-5.079,2.82-5.079,6.772a.424.424,0,0,1-.848,0c0-4.43,3.7-7.636,6.194-7.636a.425.425,0,0,1,.389.252c.759,1.722,1.328,2.542,2.5,2.542s1.737-.82,2.5-2.542a.424.424,0,0,1,.388-.252c2.493,0,6.194,3.206,6.194,7.636a.424.424,0,0,1-.424.424" transform="translate(0.06 1.213)" fill="#fff"/>
    <path id="パス_34" data-name="パス 34" d="M18.747,20.477a.429.429,0,0,1-.162-.032.423.423,0,0,1-.262-.392V17.517a.506.506,0,0,0-.505-.505h-1.8a.424.424,0,1,1,0-.847h1.8a1.354,1.354,0,0,1,1.352,1.352v1.513l2.4-2.4a1.346,1.346,0,0,1,.956-.4h6.416a.5.5,0,0,0,.5-.505V2.523a.5.5,0,0,0-.5-.505H8.133a.506.506,0,0,0-.505.505v8.484a.424.424,0,0,1-.848,0V2.523A1.354,1.354,0,0,1,8.133,1.171H28.946A1.354,1.354,0,0,1,30.3,2.523v13.2a1.354,1.354,0,0,1-1.352,1.352H22.53a.507.507,0,0,0-.358.148l-3.125,3.126a.427.427,0,0,1-.3.124" transform="translate(0.401 0.069)" fill="#fff"/>
    <path id="パス_35" data-name="パス 35" d="M26.863,11.817H16.98a.424.424,0,0,1,0-.847h9.884a.424.424,0,0,1,0,.847" transform="translate(0.978 0.648)" fill="#fff"/>
    <path id="パス_36" data-name="パス 36" d="M27.31,8.885H9.425a.424.424,0,1,1,0-.847H27.31a.424.424,0,1,1,0,.847" transform="translate(0.532 0.475)" fill="#fff"/>
    <path id="パス_37" data-name="パス 37" d="M27.31,5.954H9.425a.424.424,0,0,1,0-.847H27.31a.424.424,0,1,1,0,.847" transform="translate(0.532 0.302)" fill="#fff"/>
  </g>
</svg>
