<svg id="グループ_926" data-name="グループ 926" xmlns="http://www.w3.org/2000/svg" xmlns:xlink="http://www.w3.org/1999/xlink" width="25" height="25" viewBox="0 0 25 25">
  <defs>
    <clipPath id="clip-path">
      <rect id="長方形_1798" data-name="長方形 1798" width="25" height="25" fill="none"/>
    </clipPath>
  </defs>
  <g id="グループ_926-2" data-name="グループ 926" clip-path="url(#clip-path)">
    <path id="パス_201" data-name="パス 201" d="M6.872,18.9a2.214,2.214,0,1,0,2.214,2.214A2.216,2.216,0,0,0,6.872,18.9m0,3.76a1.546,1.546,0,1,1,1.546-1.546,1.547,1.547,0,0,1-1.546,1.546" fill="#7f552a"/>
    <path id="パス_202" data-name="パス 202" d="M18.927,18.9a2.214,2.214,0,1,0,2.214,2.214A2.216,2.216,0,0,0,18.927,18.9m0,3.76a1.546,1.546,0,1,1,1.546-1.546,1.547,1.547,0,0,1-1.546,1.546" fill="#7f552a"/>
    <path id="パス_203" data-name="パス 203" d="M3.4,20.784H2.236a.334.334,0,1,0,0,.667H3.4a.334.334,0,1,0,0-.667" fill="#7f552a"/>
    <path id="パス_204" data-name="パス 204" d="M24.081,12.519l-2.007-1.384a.622.622,0,0,1-.107-.1L20.526,6.48a1.054,1.054,0,0,0-.949-.586H15.246V2.834a1.167,1.167,0,0,0-1.165-1.165H2.916A1.17,1.17,0,0,0,1.749,2.836V4.793a.334.334,0,0,0,.668,0V2.836a.5.5,0,0,1,.5-.5H14.081a.5.5,0,0,1,.5.5V17.217a.5.5,0,0,1-.5.5H2.954a.5.5,0,0,1-.5-.5V12.084a.334.334,0,0,0-.668,0v5.133a1.167,1.167,0,0,0,1.165,1.165H14.081a1.167,1.167,0,0,0,1.165-1.165V11.638h4.781a.334.334,0,1,0,0-.667H15.246V6.561h4.331a.4.4,0,0,1,.333.169l1.441,4.557a1.067,1.067,0,0,0,.346.4l1.931,1.331c.129.521.245,3.288.245,3.71v.136H22.585a.334.334,0,0,0,0,.668h1.288v2.86a.4.4,0,0,1-.394.394H22.93a.4.4,0,0,1-.383-.331,3.68,3.68,0,0,0-7.239,0,.4.4,0,0,1-.383.33H10.334a.334.334,0,0,0,0,.667h4.591a1.062,1.062,0,0,0,1.039-.879,3.014,3.014,0,0,1,5.927,0,1.062,1.062,0,0,0,1.039.879h.549A1.062,1.062,0,0,0,24.54,20.39V16.726c0-.04-.028-3.911-.459-4.207" fill="#7f552a"/>
    <path id="パス_205" data-name="パス 205" d="M8.944,6.968a.334.334,0,1,0,0-.667H4.681a.334.334,0,0,0,0,.667Z" fill="#7f552a"/>
    <path id="パス_206" data-name="パス 206" d="M3.494,8.34a.335.335,0,0,0,.334.334h6.821a.334.334,0,0,0,0-.668H3.828a.335.335,0,0,0-.334.334" fill="#7f552a"/>
    <path id="パス_207" data-name="パス 207" d="M3.31,10.045a.335.335,0,0,0-.334-.334H1.647a.334.334,0,1,0,0,.668H2.976a.335.335,0,0,0,.334-.334" fill="#7f552a"/>
    <path id="パス_208" data-name="パス 208" d="M2.976,6.968a.334.334,0,1,0,0-.667H2.123a.334.334,0,1,0,0,.667Z" fill="#7f552a"/>
    <path id="パス_209" data-name="パス 209" d="M2.457,8.34a.335.335,0,0,0-.334-.334H.794a.334.334,0,0,0,0,.668H2.123a.335.335,0,0,0,.334-.334" fill="#7f552a"/>
    <path id="パス_210" data-name="パス 210" d="M4.681,9.711a.334.334,0,1,0,0,.667H7.239a.334.334,0,0,0,0-.667Z" fill="#7f552a"/>
  </g>
</svg>
