<svg id="グループ_519" data-name="グループ 519" xmlns="http://www.w3.org/2000/svg" xmlns:xlink="http://www.w3.org/1999/xlink" width="25" height="25" viewBox="0 0 25 25">
  <defs>
    <clipPath id="clip-path">
      <rect id="長方形_1240" data-name="長方形 1240" width="25" height="25" fill="none"/>
    </clipPath>
  </defs>
  <g id="グループ_519-2" data-name="グループ 519" clip-path="url(#clip-path)">
    <path id="パス_48" data-name="パス 48" d="M22.946,20.052H2.054A1.264,1.264,0,0,1,.791,18.789V6.21A1.264,1.264,0,0,1,2.054,4.947H22.946A1.264,1.264,0,0,1,24.209,6.21V18.789a1.264,1.264,0,0,1-1.263,1.263M2.054,5.614a.6.6,0,0,0-.6.6V18.789a.6.6,0,0,0,.6.6H22.946a.6.6,0,0,0,.6-.6V6.21a.6.6,0,0,0-.6-.6Z" fill="#7f552a"/>
    <path id="パス_49" data-name="パス 49" d="M15.809,11.352a.334.334,0,0,1-.185-.611L23.253,5.66a.333.333,0,1,1,.369.555L15.994,11.3a.334.334,0,0,1-.185.056" fill="#7f552a"/>
    <path id="パス_50" data-name="パス 50" d="M9.191,11.352a.334.334,0,0,1-.185-.056L1.378,6.215a.333.333,0,1,1,.369-.555l7.629,5.081a.334.334,0,0,1-.185.611" fill="#7f552a"/>
    <path id="パス_51" data-name="パス 51" d="M22.109,20.052a.333.333,0,0,1-.21-.074l-5.671-4.594a.333.333,0,1,1,.42-.518l5.671,4.594a.333.333,0,0,1-.21.592" fill="#7f552a"/>
    <path id="パス_52" data-name="パス 52" d="M2.891,20.052a.333.333,0,0,1-.21-.592l5.671-4.594a.333.333,0,0,1,.42.518L3.1,19.978a.333.333,0,0,1-.21.074" fill="#7f552a"/>
    <path id="パス_53" data-name="パス 53" d="M12.5,16.18a1.932,1.932,0,0,1-1.042-.407,2.673,2.673,0,0,0-.4-.229,2.8,2.8,0,0,0-.466-.129,1.939,1.939,0,0,1-1-.441,1.93,1.93,0,0,1-.44-1,2.911,2.911,0,0,0-.129-.465,2.71,2.71,0,0,0-.23-.4,1.946,1.946,0,0,1-.407-1.044,1.946,1.946,0,0,1,.407-1.043,2.71,2.71,0,0,0,.23-.4,2.923,2.923,0,0,0,.129-.466,1.927,1.927,0,0,1,.441-1,1.936,1.936,0,0,1,1-.441,2.677,2.677,0,0,0,.466-.129,2.509,2.509,0,0,0,.4-.229A1.937,1.937,0,0,1,12.5,7.944a1.937,1.937,0,0,1,1.042.407,2.509,2.509,0,0,0,.4.229,2.8,2.8,0,0,0,.466.13,1.939,1.939,0,0,1,1,.441,1.927,1.927,0,0,1,.44,1,2.923,2.923,0,0,0,.129.466,2.71,2.71,0,0,0,.23.4,1.946,1.946,0,0,1,.407,1.043,1.946,1.946,0,0,1-.407,1.044,2.71,2.71,0,0,0-.23.4,2.911,2.911,0,0,0-.129.465,1.923,1.923,0,0,1-.441,1,1.933,1.933,0,0,1-1,.441,2.8,2.8,0,0,0-.466.129,2.673,2.673,0,0,0-.4.229,1.932,1.932,0,0,1-1.042.407m0-7.569a1.41,1.41,0,0,0-.681.3,3.389,3.389,0,0,1-.506.285,3.633,3.633,0,0,1-.576.164,1.426,1.426,0,0,0-.677.261A1.426,1.426,0,0,0,9.8,10.3a3.434,3.434,0,0,1-.164.576,3.286,3.286,0,0,1-.284.505,1.417,1.417,0,0,0-.3.682,1.413,1.413,0,0,0,.3.682,3.334,3.334,0,0,1,.284.5,3.445,3.445,0,0,1,.164.577,1.428,1.428,0,0,0,.261.676,1.434,1.434,0,0,0,.677.262,3.418,3.418,0,0,1,.577.164,3.359,3.359,0,0,1,.507.285,1.4,1.4,0,0,0,.68.3,1.4,1.4,0,0,0,.68-.3,3.359,3.359,0,0,1,.507-.285,3.418,3.418,0,0,1,.577-.164,1.436,1.436,0,0,0,.676-.261,1.426,1.426,0,0,0,.262-.677,3.445,3.445,0,0,1,.164-.577,3.334,3.334,0,0,1,.284-.5,1.413,1.413,0,0,0,.3-.682,1.417,1.417,0,0,0-.3-.682,3.286,3.286,0,0,1-.284-.505A3.407,3.407,0,0,1,15.2,10.3a1.428,1.428,0,0,0-.261-.676,1.434,1.434,0,0,0-.677-.262,3.514,3.514,0,0,1-.577-.164,3.389,3.389,0,0,1-.506-.285,1.41,1.41,0,0,0-.681-.3" fill="#7f552a"/>
    <path id="パス_54" data-name="パス 54" d="M12.5,14.053a1.991,1.991,0,1,1,1.991-1.991A1.993,1.993,0,0,1,12.5,14.053m0-3.315a1.325,1.325,0,1,0,1.324,1.324A1.326,1.326,0,0,0,12.5,10.738" fill="#7f552a"/>
  </g>
</svg>
