<svg id="グループ_932" data-name="グループ 932" xmlns="http://www.w3.org/2000/svg" xmlns:xlink="http://www.w3.org/1999/xlink" width="25" height="25" viewBox="0 0 25 25">
  <defs>
    <clipPath id="clip-path">
      <rect id="長方形_1797" data-name="長方形 1797" width="25" height="25" fill="none"/>
    </clipPath>
  </defs>
  <g id="グループ_924" data-name="グループ 924" clip-path="url(#clip-path)">
    <path id="パス_200" data-name="パス 200" d="M24.489,6.236a.262.262,0,0,0-.019-.062.324.324,0,0,0-.031-.1.329.329,0,0,0-.053-.059.35.35,0,0,0-.049-.053c-.009-.006-.02-.006-.029-.011s-.015-.016-.025-.02L13.262,1.383a2,2,0,0,0-1.525,0L.717,5.928c-.011,0-.016.015-.025.02a.265.265,0,0,0-.03.011.35.35,0,0,0-.049.053.329.329,0,0,0-.053.059.324.324,0,0,0-.031.1.262.262,0,0,0-.019.062l0,.011V17.623A2,2,0,0,0,1.748,19.47l10.624,4.407a.326.326,0,0,0,.255,0L23.252,19.47a2,2,0,0,0,1.234-1.847V6.247l0-.011M5.424,8.495l2.5,1.037v5.483a.416.416,0,0,1-.573.385l-1.667-.672a.415.415,0,0,1-.26-.387ZM17.689,4.214,8.046,8.846,5.7,7.88l9.73-4.512ZM12.5,10.682,9.082,9.273l9.96-4.785,4.24,1.748ZM11.991,2a1.346,1.346,0,0,1,1.017,0l1.8.741L4.655,7.447,1.718,6.236ZM1.18,17.623V6.736l.337.139L4.59,8.15v6.191a1.248,1.248,0,0,0,.781,1.16l1.667.673a1.251,1.251,0,0,0,1.719-1.159V9.878l3.409,1.414V23.07L2,18.855a1.331,1.331,0,0,1-.823-1.232M23,18.855,12.833,23.07V11.292L23.482,6.875l.337-.139V17.623A1.331,1.331,0,0,1,23,18.855" fill="#7f552a"/>
  </g>
</svg>
