<svg xmlns="http://www.w3.org/2000/svg" xmlns:xlink="http://www.w3.org/1999/xlink" width="30" height="30" viewBox="0 0 30 30">
  <defs>
    <clipPath id="clip-path">
      <rect id="長方形_2109" data-name="長方形 2109" width="30" height="30" transform="translate(50 50)" fill="none"/>
    </clipPath>
  </defs>
  <g id="グループ_1244" data-name="グループ 1244" transform="translate(-450 -345)">
    <path id="パス_326" data-name="パス 326" d="M67.091,76.029H61.81a.4.4,0,0,1,0-.8h5.281a.747.747,0,0,0,.746-.746V67.271a.4.4,0,1,1,.8,0v7.211a1.548,1.548,0,0,1-1.545,1.547" transform="translate(400 295)" fill="#7f552a"/>
    <path id="パス_327" data-name="パス 327" d="M51.243,74.883a.4.4,0,0,1-.4-.4V52.5a1.548,1.548,0,0,1,1.546-1.546h14.7A1.547,1.547,0,0,1,68.637,52.5v6.993a.4.4,0,1,1-.8,0V52.5a.746.746,0,0,0-.745-.745h-14.7a.746.746,0,0,0-.746.745V74.483a.4.4,0,0,1-.4.4" transform="translate(400 295)" fill="#7f552a"/>
    <path id="パス_328" data-name="パス 328" d="M60.971,79.049a1.538,1.538,0,0,1-.478-.079l-8.229-2.686a2.121,2.121,0,0,1-1.421-1.9V52.4a1.223,1.223,0,0,1,.48-1.011,1.305,1.305,0,0,1,1.189-.141l8.229,2.685a2.128,2.128,0,0,1,1.422,1.9V77.818a1.218,1.218,0,0,1-.48,1.009,1.2,1.2,0,0,1-.712.222M52.032,51.967a.4.4,0,0,0-.239.068.438.438,0,0,0-.151.364V74.385a1.325,1.325,0,0,0,.87,1.14l8.229,2.685a.538.538,0,0,0,.472-.029.437.437,0,0,0,.15-.363V55.831a1.321,1.321,0,0,0-.871-1.139l-8.228-2.685a.775.775,0,0,0-.232-.04" transform="translate(400 295)" fill="#7f552a"/>
    <path id="パス_329" data-name="パス 329" d="M78.5,63.809H65.641a.4.4,0,0,1,0-.8H78.5a.4.4,0,0,1,0,.8" transform="translate(400 295)" fill="#7f552a"/>
    <path id="パス_330" data-name="パス 330" d="M73.832,68.057a.4.4,0,0,1-.261-.7l4.573-3.945L73.578,59.47a.4.4,0,1,1,.522-.6l4.918,4.241a.4.4,0,0,1,0,.6l-4.925,4.248a.393.393,0,0,1-.261.1" transform="translate(400 295)" fill="#7f552a"/>
    <g id="グループ_1226" data-name="グループ 1226" transform="translate(400 295)" opacity="0">
      <g id="グループ_1225" data-name="グループ 1225">
        <g id="グループ_1224" data-name="グループ 1224" clip-path="url(#clip-path)">
          <rect id="長方形_2108" data-name="長方形 2108" width="30" height="30" transform="translate(50 50)" fill="#fff"/>
        </g>
      </g>
    </g>
  </g>
</svg>
