<svg id="グループ_516" data-name="グループ 516" xmlns="http://www.w3.org/2000/svg" xmlns:xlink="http://www.w3.org/1999/xlink" width="30" height="30" viewBox="0 0 30 30">
  <defs>
    <clipPath id="clip-path">
      <rect id="長方形_1238" data-name="長方形 1238" width="30" height="30" fill="none"/>
    </clipPath>
  </defs>
  <g id="グループ_516-2" data-name="グループ 516" clip-path="url(#clip-path)">
    <path id="パス_38" data-name="パス 38" d="M7.558,18.432a.4.4,0,0,1-.395-.339L4.99,3.965.765,1.852a.4.4,0,0,1,.357-.715L5.533,3.342a.4.4,0,0,1,.216.3l2.2,14.332a.4.4,0,0,1-.334.457.43.43,0,0,1-.062,0" fill="#fff"/>
    <path id="パス_39" data-name="パス 39" d="M29.057,22.842H8.11c-2.255,0-4.811,0-4.811-2.191,0-.729.546-2.041,4.2-2.635L29,14.88a.406.406,0,0,1,.454.338.4.4,0,0,1-.338.454l-21.5,3.135C5.025,19.228,4.1,20.036,4.1,20.651c0,1.294,1.588,1.391,4.01,1.391H29.057a.4.4,0,1,1,0,.8" fill="#fff"/>
    <path id="パス_40" data-name="パス 40" d="M8.109,28.906a2.605,2.605,0,1,1,2.6-2.6,2.607,2.607,0,0,1-2.6,2.6m0-4.41a1.805,1.805,0,1,0,1.8,1.805,1.807,1.807,0,0,0-1.8-1.805" fill="#fff"/>
    <path id="パス_41" data-name="パス 41" d="M25.749,28.906a2.605,2.605,0,1,1,2.6-2.6,2.607,2.607,0,0,1-2.6,2.6m0-4.41A1.805,1.805,0,1,0,27.554,26.3,1.807,1.807,0,0,0,25.749,24.5" fill="#fff"/>
    <path id="パス_42" data-name="パス 42" d="M29.057,14.022a.4.4,0,0,1-.4-.4v-7.5c0-1.172-.212-1.467-1.805-1.467H7.559a.4.4,0,1,1,0-.8H26.852c1.947,0,2.605.571,2.605,2.266v7.5a.4.4,0,0,1-.4.4" fill="#fff"/>
    <path id="パス_43" data-name="パス 43" d="M24.646,11.088H6.465a.4.4,0,0,1,0-.8H24.646a.4.4,0,0,1,0,.8" fill="#fff"/>
    <path id="パス_44" data-name="パス 44" d="M16.93,14.067H6.907a.4.4,0,1,1,0-.8H16.93a.4.4,0,0,1,0,.8" fill="#fff"/>
    <path id="パス_45" data-name="パス 45" d="M26.852,8.109H6.015a.4.4,0,0,1,0-.8H26.852a.4.4,0,1,1,0,.8" fill="#fff"/>
    <path id="パス_46" data-name="パス 46" d="M7.558,18.432a.4.4,0,0,1-.395-.339L4.958,3.761a.4.4,0,1,1,.791-.122l2.2,14.332a.4.4,0,0,1-.334.457.43.43,0,0,1-.062,0" fill="#fff"/>
  </g>
</svg>
