<svg xmlns="http://www.w3.org/2000/svg" xmlns:xlink="http://www.w3.org/1999/xlink" width="30" height="30" viewBox="0 0 30 30">
  <defs>
    <clipPath id="clip-path">
      <rect id="長方形_2115" data-name="長方形 2115" width="30" height="30" transform="translate(150)" fill="none"/>
    </clipPath>
  </defs>
  <g id="グループ_1241" data-name="グループ 1241" transform="translate(-550 -295)">
    <path id="パス_339" data-name="パス 339" d="M157.558,18.432a.4.4,0,0,1-.4-.339L154.99,3.965l-4.225-2.113a.4.4,0,0,1,.357-.715l4.411,2.205a.4.4,0,0,1,.216.3l2.205,14.332a.4.4,0,0,1-.334.457.43.43,0,0,1-.062,0" transform="translate(400 295)" fill="#7f552a"/>
    <path id="パス_340" data-name="パス 340" d="M179.057,22.842H158.11c-2.255,0-4.811,0-4.811-2.191,0-.729.546-2.041,4.2-2.635L179,14.88a.407.407,0,0,1,.454.338.4.4,0,0,1-.338.454l-21.5,3.135c-2.592.421-3.517,1.229-3.517,1.844,0,1.294,1.588,1.391,4.01,1.391h20.947a.4.4,0,0,1,0,.8" transform="translate(400 295)" fill="#7f552a"/>
    <path id="パス_341" data-name="パス 341" d="M158.109,28.906a2.605,2.605,0,1,1,2.605-2.6,2.607,2.607,0,0,1-2.605,2.6m0-4.41a1.805,1.805,0,1,0,1.805,1.805,1.807,1.807,0,0,0-1.805-1.805" transform="translate(400 295)" fill="#7f552a"/>
    <path id="パス_342" data-name="パス 342" d="M175.749,28.906a2.605,2.605,0,1,1,2.605-2.6,2.607,2.607,0,0,1-2.605,2.6m0-4.41a1.805,1.805,0,1,0,1.805,1.805,1.807,1.807,0,0,0-1.805-1.805" transform="translate(400 295)" fill="#7f552a"/>
    <path id="パス_343" data-name="パス 343" d="M179.057,14.022a.4.4,0,0,1-.4-.4v-7.5c0-1.172-.212-1.467-1.8-1.467H157.559a.4.4,0,1,1,0-.8h19.293c1.947,0,2.6.571,2.6,2.266v7.5a.4.4,0,0,1-.4.4" transform="translate(400 295)" fill="#7f552a"/>
    <path id="パス_344" data-name="パス 344" d="M174.646,11.088H156.465a.4.4,0,0,1,0-.8h18.181a.4.4,0,1,1,0,.8" transform="translate(400 295)" fill="#7f552a"/>
    <path id="パス_345" data-name="パス 345" d="M166.93,14.067H156.907a.4.4,0,1,1,0-.8H166.93a.4.4,0,1,1,0,.8" transform="translate(400 295)" fill="#7f552a"/>
    <path id="パス_346" data-name="パス 346" d="M176.852,8.109H156.015a.4.4,0,0,1,0-.8h20.837a.4.4,0,0,1,0,.8" transform="translate(400 295)" fill="#7f552a"/>
    <path id="パス_347" data-name="パス 347" d="M157.558,18.432a.4.4,0,0,1-.4-.339L154.958,3.761a.4.4,0,1,1,.791-.122l2.205,14.332a.4.4,0,0,1-.334.457.43.43,0,0,1-.062,0" transform="translate(400 295)" fill="#7f552a"/>
    <g id="グループ_1235" data-name="グループ 1235" transform="translate(400 295)" opacity="0">
      <g id="グループ_1234" data-name="グループ 1234">
        <g id="グループ_1233" data-name="グループ 1233" clip-path="url(#clip-path)">
          <rect id="長方形_2114" data-name="長方形 2114" width="30" height="30" transform="translate(150)" fill="#fff"/>
        </g>
      </g>
    </g>
  </g>
</svg>
