<svg xmlns="http://www.w3.org/2000/svg" xmlns:xlink="http://www.w3.org/1999/xlink" width="30" height="30" viewBox="0 0 30 30">
  <defs>
    <clipPath id="clip-path">
      <rect id="長方形_2113" data-name="長方形 2113" width="30" height="30" transform="translate(100 50)" fill="none"/>
    </clipPath>
  </defs>
  <g id="グループ_1243" data-name="グループ 1243" transform="translate(-500 -345)">
    <path id="パス_333" data-name="パス 333" d="M127.52,76.615H102.48a2.252,2.252,0,0,1-2.249-2.249V57.336a2.251,2.251,0,0,1,.734-1.662.4.4,0,0,1,.54.589,1.442,1.442,0,0,0-.474,1.073v17.03a1.45,1.45,0,0,0,1.449,1.448h25.04a1.449,1.449,0,0,0,1.448-1.448V57.336a1.436,1.436,0,0,0-.424-1.025.4.4,0,1,1,.565-.566,2.23,2.23,0,0,1,.661,1.591v17.03a2.253,2.253,0,0,1-2.25,2.249" transform="translate(400 295)" fill="#7f552a"/>
    <path id="パス_334" data-name="パス 334" d="M114.269,75.582a2.4,2.4,0,0,1-.87-.2,11.287,11.287,0,0,0-4.556-.771,17.365,17.365,0,0,0-4.579.78,1.725,1.725,0,0,1-1.52-.16,1.862,1.862,0,0,1-.467-1.559V56.049c0-1.743,2.271-2.664,6.566-2.664s6.566.921,6.566,2.664V73.713c.006.558.013,1.323-.519,1.689a1.07,1.07,0,0,1-.622.18m-5.426-1.769a11.753,11.753,0,0,1,4.88.843c.5.194.672.114.715.087.181-.125.176-.687.172-1.022V56.049c0-1.167-2.156-1.864-5.766-1.864s-5.766.7-5.766,1.864v17.63c0,.354,0,.793.167.93a1.072,1.072,0,0,0,.807.016,17.74,17.74,0,0,1,4.793-.812" transform="translate(400 295)" fill="#7f552a"/>
    <path id="パス_335" data-name="パス 335" d="M115.725,75.58a1.062,1.062,0,0,1-.616-.179c-.532-.365-.525-1.131-.519-1.689V56.049c0-1.743,2.27-2.664,6.566-2.664s6.566.921,6.566,2.664V73.674a1.865,1.865,0,0,1-.466,1.559,1.7,1.7,0,0,1-1.489.17,17.508,17.508,0,0,0-4.611-.79,11.286,11.286,0,0,0-4.526.759,2.51,2.51,0,0,1-.906.208m5.432-21.4c-3.61,0-5.766.7-5.766,1.864V73.72c0,.336-.009.9.172,1.022.041.028.22.106.744-.1a11.83,11.83,0,0,1,4.851-.828,17.9,17.9,0,0,1,4.826.82,1.047,1.047,0,0,0,.774-.025c.171-.137.169-.576.167-.93V56.049c0-1.167-2.156-1.864-5.766-1.864" transform="translate(400 295)" fill="#7f552a"/>
    <path id="パス_336" data-name="パス 336" d="M123.607,63.247H117.5a.4.4,0,1,1,0-.8h6.107a.4.4,0,0,1,0,.8" transform="translate(400 295)" fill="#7f552a"/>
    <path id="パス_337" data-name="パス 337" d="M120.867,66.226H117.5a.4.4,0,1,1,0-.8h3.367a.4.4,0,0,1,0,.8" transform="translate(400 295)" fill="#7f552a"/>
    <path id="パス_338" data-name="パス 338" d="M124.5,60.268h-7a.4.4,0,0,1,0-.8h7a.4.4,0,0,1,0,.8" transform="translate(400 295)" fill="#7f552a"/>
    <g id="グループ_1232" data-name="グループ 1232" transform="translate(400 295)" opacity="0">
      <g id="グループ_1231" data-name="グループ 1231">
        <g id="グループ_1230" data-name="グループ 1230" clip-path="url(#clip-path)">
          <rect id="長方形_2112" data-name="長方形 2112" width="30" height="30" transform="translate(100 50)" fill="#fff"/>
        </g>
      </g>
    </g>
  </g>
</svg>
