<svg id="グループ_1516" data-name="グループ 1516" xmlns="http://www.w3.org/2000/svg" xmlns:xlink="http://www.w3.org/1999/xlink" width="30" height="30" viewBox="0 0 30 30">
  <defs>
    <clipPath id="clip-path">
      <rect id="長方形_2352" data-name="長方形 2352" width="30" height="30" fill="#fff"/>
    </clipPath>
  </defs>
  <g id="グループ_1515" data-name="グループ 1515" clip-path="url(#clip-path)">
    <path id="パス_352" data-name="パス 352" d="M8.109,23.7a2.605,2.605,0,1,0,2.6,2.605,2.608,2.608,0,0,0-2.6-2.605m0,4.409a1.8,1.8,0,1,1,1.8-1.8,1.807,1.807,0,0,1-1.8,1.8" fill="#fff"/>
    <path id="パス_353" data-name="パス 353" d="M25.749,23.7a2.605,2.605,0,1,0,2.6,2.605,2.608,2.608,0,0,0-2.6-2.605m0,4.409a1.8,1.8,0,1,1,1.805-1.8,1.807,1.807,0,0,1-1.805,1.8" fill="#fff"/>
    <path id="パス_354" data-name="パス 354" d="M29.06,14.02a.4.4,0,0,0,.4-.4V6.12c0-1.7-.66-2.27-2.61-2.27H23.373a7.125,7.125,0,0,0-11.43,0H7.56a.4.4,0,0,0,0,.8h3.853a6.874,6.874,0,0,0-.85,2.66H6.314L5.749,3.639a.394.394,0,0,0-.066-.162.412.412,0,0,0-.041-.043.45.45,0,0,0-.085-.072c-.009,0-.015-.015-.025-.02L1.122,1.137a.4.4,0,0,0-.536.178.4.4,0,0,0,.179.537L4.99,3.965,7.161,18.078C3.819,18.694,3.3,19.944,3.3,20.65c0,2.192,2.556,2.192,4.811,2.192H29.057a.4.4,0,0,0,0-.8H8.11c-2.422,0-4.01-.1-4.01-1.391,0-.615.925-1.422,3.516-1.843l21.5-3.136a.4.4,0,0,0,.337-.453A.4.4,0,0,0,29,14.88L7.951,17.95l-.6-3.88h6.339a7.141,7.141,0,0,0,10.46-2.98h.5a.4.4,0,0,0,0-.8h-.187a7.042,7.042,0,0,0,.34-2.17V8.11H26.85a.4.4,0,0,0,0-.8h-2.1a6.874,6.874,0,0,0-.85-2.66H26.85c1.59,0,1.81.3,1.81,1.47v7.5a.4.4,0,0,0,.4.4M10.513,8.11v.01a7.042,7.042,0,0,0,.34,2.17H6.773L6.437,8.11ZM7.231,13.27,6.9,11.09h4.267a6.772,6.772,0,0,0,1.55,2.18ZM23.943,7.31a5.287,5.287,0,0,1,.06.8v.01a6.05,6.05,0,0,1-.39,2.17,4.732,4.732,0,0,1-.35.8,6.342,6.342,0,0,1-5.61,3.38,6.111,6.111,0,0,1-2.18-.4h.047a5.664,5.664,0,0,1-1.52-.8h-.047a6.427,6.427,0,0,1-1.9-2.18H12.1a4.732,4.732,0,0,1-.35-.8H11.7a6.05,6.05,0,0,1-.39-2.17V8.11h.047a5.287,5.287,0,0,1,.06-.8h-.047a6.273,6.273,0,0,1,.97-2.66h.047a6.065,6.065,0,0,1,.64-.8h-.047a6.314,6.314,0,0,1,9.35,0,6.065,6.065,0,0,1,.64.8,6.273,6.273,0,0,1,.97,2.66" fill="#fff"/>
    <path id="パス_355" data-name="パス 355" d="M21.343,4.44a.4.4,0,0,0-.566,0L17.658,7.559,14.539,4.44a.4.4,0,0,0-.566.566l3.119,3.119-3.119,3.119a.4.4,0,0,0,.566.566l3.119-3.119,3.119,3.119a.4.4,0,0,0,.566-.566L18.224,8.125l3.119-3.119a.4.4,0,0,0,0-.566" fill="#fff"/>
  </g>
</svg>
